<svg xmlns="http://www.w3.org/2000/svg" xmlns:xlink="http://www.w3.org/1999/xlink" viewBox="0 0 455 377">
  <defs>
    <style>
      .cls-1 {
        clip-path: url(#clip-Artboard_4);
      }

      .cls-2 {
        fill: #27c984;
      }
    </style>
    <clipPath id="clip-Artboard_4">
      <rect width="455" height="377"/>
    </clipPath>
  </defs>
  <g id="Artboard_4" data-name="Artboard – 4" class="cls-1">
    <g id="Group_258" data-name="Group 258">
      <g id="loudspeaker-announce" transform="translate(51 43)">
        <g id="Group_57" data-name="Group 57" transform="translate(0 0)">
          <path id="Path_109" data-name="Path 109" class="cls-2" d="M.46,105.875,0,220.708a13.7,13.7,0,0,0,4.363,10.106A14.349,14.349,0,0,0,14.7,234.488c.229,0,11.942-.918,30.086-1.149a112.071,112.071,0,0,0,9.875,39.273c9.186,19.521,28.708,43.177,68.67,44.1h2.3c20.9,0,38.354-6.43,51.675-19.062,15.618-14.928,21.588-34.679,23.885-47.541,65.914,23.426,104.727,57.646,105.187,57.876h0a13.44,13.44,0,0,0,9.186,3.445,14.779,14.779,0,0,0,5.512-1.149,13.809,13.809,0,0,0,8.268-12.631V34.22a13.949,13.949,0,0,0-23.2-10.335c-.46.46-55.579,49.608-97.378,62.469-24.115,7.35-57.646,11.253-99.675,11.253A846.3,846.3,0,0,1,16.076,92.1,14.122,14.122,0,0,0,5.282,95.311,14.676,14.676,0,0,0,.46,105.875ZM125.627,289.148h-1.607c-20.9-.46-35.139-9.417-44.1-27.56a79.271,79.271,0,0,1-7.579-28.478c5.512,0,11.484.229,17.225.46a13.876,13.876,0,0,0,5.512,1.149h0a10.951,10.951,0,0,0,4.594-.918c24.574,1.149,51.215,3.674,74.641,8.728C172.709,256.765,164.21,289.148,125.627,289.148Zm91.407-176.383c29.627-9.186,63.158-32.383,84.746-49.378V269.856a405.091,405.091,0,0,0-91.407-45.933c-29.167-10.335-66.373-15.158-101.053-17l.46-81.531C154.335,125.167,190.392,121.033,217.034,112.765Zm-189.014,8.5c12.631,1.149,31.923,2.756,54.2,3.445l-.46,80.842c-6.2-.229-12.173-.229-17.685-.229-14.7,0-27.33.46-36.517.689Z" transform="translate(0 -20.336)"/>
        </g>
      </g>
    </g>
  </g>
</svg>
