<svg xmlns="http://www.w3.org/2000/svg" xmlns:xlink="http://www.w3.org/1999/xlink" viewBox="0 0 455 377">
  <defs>
    <style>
      .cls-1 {
        clip-path: url(#clip-Artboard_7);
      }

      .cls-2 {
        fill: #27c984;
      }
    </style>
    <clipPath id="clip-Artboard_7">
      <rect width="455" height="377"/>
    </clipPath>
  </defs>
  <g id="Artboard_7" data-name="Artboard – 7" class="cls-1">
    <g id="Group_261" data-name="Group 261" transform="translate(-98.852 -89.651)">
      <g id="Group_262" data-name="Group 262" transform="translate(165 122)">
        <g id="television-screen" transform="translate(0 0)">
          <path id="Path_27" data-name="Path 27" class="cls-2" d="M43.572,245.691H149.389v49.8H70.545a12.449,12.449,0,1,0,0,24.9H251.057a12.449,12.449,0,0,0,0-24.9H174.287v-49.8H280.1a43.835,43.835,0,0,0,43.572-43.572V51.07c0-23.861-19.711-43.987-43.572-43.987H43.572C19.711,7.083,0,27.21,0,51.07V202.119A43.835,43.835,0,0,0,43.572,245.691Zm255.207-43.157a18.285,18.285,0,0,1-18.258,18.258H43.157A18.285,18.285,0,0,1,24.9,202.534V50.24A18.285,18.285,0,0,1,43.157,31.982H280.312A18.285,18.285,0,0,1,298.571,50.24V202.535h.208Z" transform="translate(0 -7.083)"/>
        </g>
        <g id="multimedia-music-player-play-button" transform="translate(88.034 43.649)">
          <path id="Path_89" data-name="Path 89" class="cls-2" d="M223.468,151.375l-61.35-35.424a5.02,5.02,0,0,0-5.134,0,5.135,5.135,0,0,0-2.567,4.449v70.762a5.135,5.135,0,0,0,2.567,4.449,5.155,5.155,0,0,0,5.134,0l61.265-35.424a5.109,5.109,0,0,0,.085-8.813ZM164.685,182.35V129.3l45.863,26.525Z" transform="translate(-107.784 -80.442)"/>
          <path id="Path_90" data-name="Path 90" class="cls-2" d="M75.383,0a75.383,75.383,0,1,0,75.383,75.383A75.445,75.445,0,0,0,75.383,0Zm0,140.5A65.115,65.115,0,1,1,140.5,75.383,65.147,65.147,0,0,1,75.383,140.5Z"/>
        </g>
      </g>
    </g>
  </g>
</svg>
