<svg xmlns="http://www.w3.org/2000/svg" xmlns:xlink="http://www.w3.org/1999/xlink" viewBox="0 0 455 377">
  <defs>
    <style>
      .cls-1 {
        clip-path: url(#clip-Artboard_10);
      }

      .cls-2 {
        fill: #0d1f31;
      }
    </style>
    <clipPath id="clip-Artboard_10">
      <rect width="455" height="377"/>
    </clipPath>
  </defs>
  <g id="Artboard_10" data-name="Artboard – 10" class="cls-1">
    <g id="Group_267" data-name="Group 267">
      <g id="Group_266" data-name="Group 266" transform="translate(55.629 20.587)">
        <g id="Group_95" data-name="Group 95">
          <g id="Group_94" data-name="Group 94">
            <path id="Path_200" data-name="Path 200" class="cls-2" d="M338.009,68.948H317.136a7.057,7.057,0,0,0-2.424.471A86.445,86.445,0,0,0,145.3,68.948H6.733A6.753,6.753,0,0,0,0,75.682v253.17a6.753,6.753,0,0,0,6.733,6.733H338.009a6.753,6.753,0,0,0,6.733-6.733V75.682A6.71,6.71,0,0,0,338.009,68.948ZM229.94,13.466a72.937,72.937,0,0,1,56.223,119.38,7.053,7.053,0,0,0-.539.741l-55.751,71.44L173.516,132.78a.929.929,0,0,0-.2-.269A72.991,72.991,0,0,1,229.94,13.466ZM331.276,322.118H303.2l-107.665-51.24A6.716,6.716,0,0,0,189.743,283l82.078,39.053H24.778l79.587-79.587,36.09,17.17a6.716,6.716,0,0,0,5.791-12.12l-40.332-19.257a6.793,6.793,0,0,0-7.676,1.347L13.466,314.375V287.711c.135-.067.2-.2.337-.269l74.47-74.47a6.664,6.664,0,0,0,1.953-4.781V164.224a6.733,6.733,0,1,0-13.466,0v41.14L13.466,268.656V82.415H76.759V114.4a6.733,6.733,0,0,0,13.466,0V82.415h18.853V204.691a6.611,6.611,0,0,0,3.838,6.06L331.276,315.183Zm0-21.883-208.73-99.854V82.415H143.62c-.067,1.347-.067,2.693-.067,4.04a86.242,86.242,0,0,0,19.257,54.337l.067.067,61.811,79.183a6.767,6.767,0,0,0,5.319,2.559h0a6.767,6.767,0,0,0,5.319-2.559L296.8,141.263c.135-.135.2-.269.337-.4a86.426,86.426,0,0,0,19.257-54.4c0-1.347-.067-2.761-.067-4.107a3.558,3.558,0,0,0,.875.067h14.14v217.82Z"/>
          </g>
        </g>
        <g id="Group_97" data-name="Group 97" transform="translate(162.271 259.028)">
          <g id="Group_96" data-name="Group 96">
            <path id="Path_201" data-name="Path 201" class="cls-2" d="M252.514,386.653a6.664,6.664,0,0,0-4.781-1.953,6.954,6.954,0,0,0-4.781,1.953A6.664,6.664,0,0,0,241,391.433a7.08,7.08,0,0,0,1.953,4.781,6.664,6.664,0,0,0,4.781,1.953,6.953,6.953,0,0,0,4.781-1.953,6.664,6.664,0,0,0,1.953-4.781A6.779,6.779,0,0,0,252.514,386.653Z" transform="translate(-241 -384.7)"/>
          </g>
        </g>
        <g id="Group_99" data-name="Group 99" transform="translate(76.759 129.75)">
          <g id="Group_98" data-name="Group 98">
            <path id="Path_202" data-name="Path 202" class="cls-2" d="M125.514,194.653a6.664,6.664,0,0,0-4.781-1.953,6.954,6.954,0,0,0-4.781,1.953A6.553,6.553,0,0,0,114,199.433a7.08,7.08,0,0,0,1.953,4.781,6.664,6.664,0,0,0,4.781,1.953,6.953,6.953,0,0,0,4.781-1.953,6.664,6.664,0,0,0,1.953-4.781A7.08,7.08,0,0,0,125.514,194.653Z" transform="translate(-114 -192.7)"/>
          </g>
        </g>
        <g id="Group_101" data-name="Group 101" transform="translate(185.837 35.888)">
          <g id="Group_100" data-name="Group 100">
            <path id="Path_203" data-name="Path 203" class="cls-2" d="M359.156,141.1V60.033a6.753,6.753,0,0,0-6.733-6.733H287.783a6.753,6.753,0,0,0-6.733,6.733v81a6.74,6.74,0,0,0,1.683,13.264h74.739a6.7,6.7,0,0,0,1.683-13.2Zm-34.946-.2H316V130.126h8.215Zm21.479,0h-8.013V123.393a6.753,6.753,0,0,0-6.733-6.733H309.262a6.753,6.753,0,0,0-6.733,6.733V140.9h-8.013V66.834h51.173Z" transform="translate(-276 -53.3)"/>
          </g>
        </g>
        <g id="Group_103" data-name="Group 103" transform="translate(212.366 57.839)">
          <g id="Group_102" data-name="Group 102">
            <path id="Path_204" data-name="Path 204" class="cls-2" d="M326.914,87.853a6.664,6.664,0,0,0-4.781-1.953,7.08,7.08,0,0,0-4.781,1.953,6.664,6.664,0,0,0-1.953,4.781,6.954,6.954,0,0,0,1.953,4.781,6.664,6.664,0,0,0,4.781,1.953,7.08,7.08,0,0,0,4.781-1.953,6.829,6.829,0,0,0,0-9.561Z" transform="translate(-315.4 -85.9)"/>
          </g>
        </g>
        <g id="Group_105" data-name="Group 105" transform="translate(234.048 57.839)">
          <g id="Group_104" data-name="Group 104">
            <path id="Path_205" data-name="Path 205" class="cls-2" d="M359.114,87.853a6.665,6.665,0,0,0-4.781-1.953,7.08,7.08,0,0,0-4.781,1.953,6.664,6.664,0,0,0-1.953,4.781,6.954,6.954,0,0,0,1.953,4.781,6.664,6.664,0,0,0,4.781,1.953,7.08,7.08,0,0,0,4.781-1.953,6.553,6.553,0,0,0,1.953-4.781A6.954,6.954,0,0,0,359.114,87.853Z" transform="translate(-347.6 -85.9)"/>
          </g>
        </g>
        <g id="Group_107" data-name="Group 107" transform="translate(212.366 78.51)">
          <g id="Group_106" data-name="Group 106">
            <path id="Path_206" data-name="Path 206" class="cls-2" d="M326.914,118.553a6.664,6.664,0,0,0-4.781-1.953,7.08,7.08,0,0,0-4.781,1.953,6.664,6.664,0,0,0-1.953,4.781,7.08,7.08,0,0,0,1.953,4.781,6.664,6.664,0,0,0,4.781,1.953,7.08,7.08,0,0,0,4.781-1.953,6.664,6.664,0,0,0,1.953-4.781A6.779,6.779,0,0,0,326.914,118.553Z" transform="translate(-315.4 -116.6)"/>
          </g>
        </g>
        <g id="Group_109" data-name="Group 109" transform="translate(234.048 78.51)">
          <g id="Group_108" data-name="Group 108">
            <path id="Path_207" data-name="Path 207" class="cls-2" d="M359.114,118.553a6.665,6.665,0,0,0-4.781-1.953,7.08,7.08,0,0,0-4.781,1.953,6.664,6.664,0,0,0-1.953,4.781,7.08,7.08,0,0,0,1.953,4.781,6.664,6.664,0,0,0,4.781,1.953,7.08,7.08,0,0,0,4.781-1.953,6.553,6.553,0,0,0,1.953-4.781A7.081,7.081,0,0,0,359.114,118.553Z" transform="translate(-347.6 -116.6)"/>
          </g>
        </g>
      </g>
    </g>
  </g>
</svg>
