<?xml version="1.0" encoding="iso-8859-1"?>
<!-- Generator: Adobe Illustrator 19.0.0, SVG Export Plug-In . SVG Version: 6.00 Build 0)  -->
<svg version="1.1" id="Capa_1" xmlns="http://www.w3.org/2000/svg" xmlns:xlink="http://www.w3.org/1999/xlink" x="0px" y="0px"
	 viewBox="0 0 512 512" style="enable-background:new 0 0 512 512;" xml:space="preserve">
<g>
	<g>
		<path d="M110.485,140.879H75.497c-4.143,0-7.502,3.358-7.502,7.502v34.988c0,4.144,3.359,7.502,7.502,7.502h34.988
			c4.143,0,7.502-3.359,7.502-7.502v-34.988C117.987,144.237,114.628,140.879,110.485,140.879z M102.983,175.867H82.999v-19.984
			h19.984V175.867z"/>
	</g>
</g>
<g>
	<g>
		<path d="M110.485,203.203H75.497c-4.143,0-7.502,3.358-7.502,7.502v34.988c0,4.144,3.359,7.502,7.502,7.502h34.988
			c4.143,0,7.502-3.358,7.502-7.502v-34.988C117.987,206.561,114.628,203.203,110.485,203.203z M102.983,238.191H82.999v-19.984
			h19.984V238.191z"/>
	</g>
</g>
<g>
	<g>
		<path d="M175.251,140.879h-34.988c-4.143,0-7.502,3.358-7.502,7.502v34.988c0,4.144,3.359,7.502,7.502,7.502h34.988
			c4.143,0,7.502-3.359,7.502-7.502v-34.988C182.753,144.237,179.394,140.879,175.251,140.879z M167.749,175.867h-19.984v-19.984
			h19.984V175.867z"/>
	</g>
</g>
<g>
	<g>
		<path d="M175.251,203.203h-34.988c-4.143,0-7.502,3.358-7.502,7.502v34.988c0,4.144,3.359,7.502,7.502,7.502h34.988
			c4.143,0,7.502-3.358,7.502-7.502v-34.988C182.753,206.561,179.394,203.203,175.251,203.203z M167.749,238.191h-19.984v-19.984
			h19.984V238.191z"/>
	</g>
</g>
<g>
	<g>
		<path d="M110.485,269.865H75.497c-4.143,0-7.502,3.358-7.502,7.502v34.988c0,4.144,3.359,7.502,7.502,7.502h34.988
			c4.143,0,7.502-3.358,7.502-7.502v-34.988C117.987,273.222,114.628,269.865,110.485,269.865z M102.983,304.852H82.999v-19.984
			h19.984V304.852z"/>
	</g>
</g>
<g>
	<g>
		<path d="M175.251,269.865h-34.988c-4.143,0-7.502,3.358-7.502,7.502v34.988c0,4.144,3.359,7.502,7.502,7.502h34.988
			c4.143,0,7.502-3.358,7.502-7.502v-34.988C182.753,273.222,179.394,269.865,175.251,269.865z M167.749,304.852h-19.984v-19.984
			h19.984V304.852z"/>
	</g>
</g>
<g>
	<g>
		<path d="M371.739,140.879h-34.988c-4.144,0-7.502,3.358-7.502,7.502v34.988c0,4.144,3.358,7.502,7.502,7.502h34.988
			c4.144,0,7.502-3.359,7.502-7.502v-34.988C379.241,144.237,375.883,140.879,371.739,140.879z M364.236,175.867h-19.984v-19.984
			h19.984V175.867z"/>
	</g>
</g>
<g>
	<g>
		<path d="M371.739,203.203h-34.988c-4.144,0-7.502,3.358-7.502,7.502v34.988c0,4.144,3.358,7.502,7.502,7.502h34.988
			c4.144,0,7.502-3.358,7.502-7.502v-34.988C379.241,206.561,375.883,203.203,371.739,203.203z M364.236,238.191h-19.984v-19.984
			h19.984V238.191z"/>
	</g>
</g>
<g>
	<g>
		<path d="M436.504,140.879h-34.988c-4.144,0-7.502,3.358-7.502,7.502v34.988c0,4.144,3.358,7.502,7.502,7.502h34.988
			c4.144,0,7.502-3.359,7.502-7.502v-34.988C444.005,144.237,440.648,140.879,436.504,140.879z M429.002,175.867h-19.984v-19.984
			h19.984V175.867z"/>
	</g>
</g>
<g>
	<g>
		<path d="M436.504,203.203h-34.988c-4.144,0-7.502,3.358-7.502,7.502v34.988c0,4.144,3.358,7.502,7.502,7.502h34.988
			c4.144,0,7.502-3.358,7.502-7.502v-34.988C444.005,206.561,440.648,203.203,436.504,203.203z M429.002,238.191h-19.984v-19.984
			h19.984V238.191z"/>
	</g>
</g>
<g>
	<g>
		<path d="M371.739,269.865h-34.988c-4.144,0-7.502,3.358-7.502,7.502v34.988c0,4.144,3.358,7.502,7.502,7.502h34.988
			c4.144,0,7.502-3.358,7.502-7.502v-34.988C379.241,273.222,375.883,269.865,371.739,269.865z M364.236,304.852h-19.984v-19.984
			h19.984V304.852z"/>
	</g>
</g>
<g>
	<g>
		<path d="M436.504,269.865h-34.988c-4.144,0-7.502,3.358-7.502,7.502v34.988c0,4.144,3.358,7.502,7.502,7.502h34.988
			c4.144,0,7.502-3.358,7.502-7.502v-34.988C444.005,273.222,440.648,269.865,436.504,269.865z M429.002,304.852h-19.984v-19.984
			h19.984V304.852z"/>
	</g>
</g>
<g>
	<g>
		<path d="M299.011,326.062c4.144,0,7.502-3.358,7.502-7.502v-36.54c0-6.895-5.608-12.503-12.503-12.503h-76.019
			c-6.895,0-12.503,5.608-12.503,12.503v133.642c0,4.144,3.359,7.502,7.502,7.502h86.021c4.144,0,7.502-3.358,7.502-7.502v-42.753
			c0-4.144-3.358-7.502-7.502-7.502c-4.144,0-7.502,3.358-7.502,7.502v35.252h-71.017V284.521h71.017v34.039
			C291.509,322.705,294.867,326.062,299.011,326.062z"/>
	</g>
</g>
<g>
	<g>
		<path d="M498.822,450.454h-5.966v-29.221c0-6.895-5.608-12.503-12.503-12.503H31.649c-6.895,0-12.503,5.608-12.503,12.503v29.221
			h-5.966c-6.895,0-12.503,5.608-12.503,12.503v31.982c0,6.895,5.608,12.503,12.503,12.503h485.643
			c6.895,0,12.503-5.608,12.503-12.503v-31.982C511.325,456.063,505.716,450.454,498.822,450.454z M34.149,423.733h443.702v26.721
			H34.149V423.733z M496.321,492.438H15.68v-26.981h480.641V492.438z"/>
	</g>
</g>
<g>
	<g>
		<path d="M499.497,66.267h-49.219V40.208c0-4.144-3.358-7.502-7.502-7.502H332.183c-0.85-1.791-2.122-3.367-3.742-4.595
			l-11.136-8.439c-2.879-2.183-6.538-3.016-10.038-2.289c-23.717,4.924-36.824-3.678-42.531-9.242
			c-4.897-4.776-12.573-4.777-17.471,0.001c-5.706,5.564-18.82,14.161-42.527,9.242c-3.506-0.729-7.164,0.104-10.04,2.287
			l-11.135,8.439c-1.62,1.227-2.894,2.804-3.744,4.596H74.226c-6.895,0-12.503,5.608-12.503,12.503v21.058h-49.22
			C5.608,66.267,0,71.875,0,78.77v23.559c0,6.895,5.608,12.503,12.503,12.503h19.32v63.031c0,4.144,3.359,7.502,7.502,7.502
			s7.502-3.358,7.502-7.502v-63.031h139.366c11.7,30.004,34.101,51.708,65.524,63.214c1.381,0.505,2.832,0.757,4.283,0.757
			c1.452,0,2.904-0.253,4.286-0.758c31.421-11.506,53.822-33.209,65.522-63.213h139.367v293.33H46.826V231.962
			c0-4.144-3.359-7.502-7.502-7.502s-7.502,3.358-7.502,7.502v183.7c0,4.144,3.359,7.502,7.502,7.502h433.352
			c4.144,0,7.502-3.358,7.502-7.502V114.831h19.319c6.895,0,12.503-5.608,12.503-12.503V78.77
			C512,71.875,506.392,66.267,499.497,66.267z M76.727,47.709h100.677c-0.408,5.135-0.672,11.458-0.479,18.558H76.727V47.709z
			 M39.325,99.828L39.325,99.828l-24.321-0.001V81.271h59.222h103.78c0.708,5.968,1.798,12.213,3.4,18.557H39.325z M256.001,163.632
			c-72.882-27.335-65.368-106.013-62.576-124.171l9.435-7.151c27.739,5.397,44.69-4.355,53.141-11.814
			c8.45,7.459,25.404,17.206,53.141,11.814l9.436,7.151C321.369,57.621,328.881,136.297,256.001,163.632z M435.274,47.709v18.558
			H335.077c0.194-7.099-0.071-13.421-0.479-18.558H435.274z M496.996,99.827h-24.32H330.595c1.601-6.344,2.692-12.589,3.4-18.558
			h108.782h54.22V99.827z"/>
	</g>
</g>
<g>
	<g>
		<path d="M290.906,77.366c-1.126-3.466-4.066-5.944-7.672-6.468l-12.929-1.878l-5.781-11.718c0,0-0.001-0.001-0.002-0.002
			c-1.613-3.266-4.877-5.294-8.52-5.294c-0.001,0-0.002,0-0.002,0c-3.643,0.001-6.908,2.031-8.519,5.297l-5.782,11.717
			l-12.929,1.878c-3.606,0.524-6.545,3.002-7.671,6.467c-1.126,3.466-0.205,7.198,2.404,9.741l9.356,9.12l-2.208,12.876
			c-0.616,3.592,0.832,7.153,3.78,9.294c1.665,1.21,3.615,1.825,5.576,1.825c1.51,0,3.028-0.364,4.431-1.101l11.565-6.079
			l11.564,6.078c3.225,1.697,7.06,1.418,10.007-0.722c2.948-2.143,4.396-5.703,3.781-9.294l-2.209-12.877l9.355-9.119
			C291.11,84.564,292.031,80.831,290.906,77.366z M266.605,87.496c-2.244,2.184-3.267,5.329-2.738,8.414l0.813,4.742l-4.255-2.237
			c-2.771-1.458-6.078-1.457-8.847-0.002l-4.258,2.239l0.813-4.74c0.529-3.087-0.494-6.232-2.733-8.411l-3.446-3.359l4.763-0.691
			c3.093-0.449,5.766-2.391,7.154-5.197l2.129-4.314l2.133,4.321c1.385,2.8,4.059,4.74,7.151,5.189l4.761,0.691L266.605,87.496z"/>
	</g>
</g>
<g>
</g>
<g>
</g>
<g>
</g>
<g>
</g>
<g>
</g>
<g>
</g>
<g>
</g>
<g>
</g>
<g>
</g>
<g>
</g>
<g>
</g>
<g>
</g>
<g>
</g>
<g>
</g>
<g>
</g>
</svg>
